<?xml version="1.0" encoding="UTF-8"?>
<svg id="Layer_1" data-name="Layer 1" xmlns="http://www.w3.org/2000/svg" viewBox="0 0 701.34 1101.56">
  <defs>
    <style>
      .cls-1 {
        fill: #c2c2c2;
        font-family: LouisGeorgeCafe, 'Louis George Café';
        font-size: 1000px;
        letter-spacing: -.09em;
      }
    </style>
  </defs>
  <g>
    <path d="M134.07,251.08h434.54c72.98,0,132.23,59.25,132.23,132.23v434.54c0,72.98-59.25,132.23-132.23,132.23H134.07c-72.98,0-132.23-59.25-132.23-132.23V383.31c0-72.98,59.25-132.23,132.23-132.23Z"/>
    <path d="M568.61,251.58c35.19,0,68.27,13.7,93.15,38.58,24.88,24.88,38.58,57.96,38.58,93.15v434.54c0,35.19-13.7,68.27-38.58,93.15-24.88,24.88-57.96,38.58-93.15,38.58H134.07c-35.19,0-68.27-13.7-93.15-38.58-24.88-24.88-38.58-57.96-38.58-93.15V383.31c0-35.19,13.7-68.27,38.58-93.15,24.88-24.88,57.96-38.58,93.15-38.58h434.54m0-1H134.07C60.76,250.58,1.34,310,1.34,383.31v434.54c0,73.3,59.43,132.73,132.73,132.73h434.54c73.3,0,132.73-59.43,132.73-132.73V383.31c0-73.3-59.43-132.73-132.73-132.73h0Z"/>
  </g>
  <text/>
  <text class="cls-1" transform="translate(39.34 857.42)"><tspan x="0" y="0">r</tspan></text>
</svg>